<svg xmlns="http://www.w3.org/2000/svg" viewBox="0 0 170.6 100.1"><path d="M82.9 52.2c0 9.6-1.7 18-5.1 25.2-3.4 7.2-8.2 12.8-14.5 16.7C57 98 49.8 100 41.6 100c-8.1 0-15.3-1.9-21.6-5.8-6.3-3.9-11.2-9.4-14.7-16.6C1.8 70.4 0 62.1 0 52.8V48c0-9.6 1.7-18 5.2-25.3 3.5-7.3 8.3-12.9 14.6-16.8C26.1 2 33.4 0 41.5 0s15.3 2 21.6 5.9c6.3 3.9 11.2 9.5 14.6 16.8 3.5 7.3 5.2 15.7 5.2 25.3v4.2zm-20.3-4.4c0-10.2-1.8-18-5.5-23.3-3.7-5.3-8.9-8-15.7-8-6.7 0-11.9 2.6-15.6 7.9-3.7 5.2-5.5 12.9-5.6 23v4.7c0 9.9 1.8 17.7 5.5 23.1 3.7 5.5 8.9 8.2 15.8 8.2 6.7 0 11.9-2.6 15.5-7.9 3.6-5.3 5.4-13 5.5-23.1v-4.6zm98.5-30.2h-43.5v18.9h15.7c11.5 0 20.5 2.8 27.3 8.3 6.7 5.6 10.1 13 10.1 22.4 0 9.5-3.3 17-10 22.8-6.7 5.7-15.5 8.6-26.6 8.7H97.3V1.3h63.8v16.3zm-43.5 35v30h16c5.1 0 9.2-1.4 12.3-4.2 3.1-2.8 4.6-6.6 4.6-11.3 0-4.4-1.5-7.9-4.4-10.5-2.9-2.6-6.9-3.9-12-4h-16.5z" fill="#fff"/></svg>