<svg xmlns="http://www.w3.org/2000/svg" viewBox="0 0 464 464"><path d="M232 0C103.9 0 0 103.9 0 232s103.9 232 232 232c2.6 0 5.2-.1 7.8-.2 125.1-4 224.3-106.6 224.2-231.8C464 103.9 360.1 0 232 0zm137.6 214.6l-51.5 51.8c-3.8 3.8-5.4 9.4-4.3 14.6l15.4 71.6c1.3 5.9-.9 12.1-5.6 15.8-4.7 3.8-11.2 4.6-16.7 2l-68.2-31.5c-4.3-2-9.2-2-13.4 0l-68.2 31.5c-5.5 2.5-12 1.8-16.7-2-4.7-3.8-6.9-9.9-5.6-15.8l15.4-71.6c1.1-5.3-.5-10.8-4.3-14.6l-51.8-52.1c-4.2-4.3-5.7-10.6-3.8-16.3 1.9-5.7 6.8-9.9 12.8-10.8l65.3-10.1c4.8-.7 9-3.6 11.5-7.8l37.2-64.8c2.9-5.1 8.5-8.2 14.4-8 5.9.2 11.2 3.6 13.9 8.9l31 63c2.3 4.8 6.9 8 12.1 8.8l72.1 10.3c6 .8 11 5 12.9 10.7 1.8 5.8.4 12.1-3.9 16.4z" fill="#0d47a1"/></svg>