<svg xmlns="http://www.w3.org/2000/svg" viewBox="0 0 82.9 100.1"><path d="M82.9 52.2c0 9.6-1.7 18-5.1 25.2-3.4 7.2-8.2 12.8-14.5 16.7C57 98 49.8 100 41.6 100c-8.1 0-15.3-1.9-21.6-5.8-6.3-3.9-11.2-9.4-14.7-16.6C1.8 70.4 0 62.1 0 52.8V48c0-9.6 1.7-18 5.2-25.3 3.5-7.3 8.3-12.9 14.6-16.8C26.1 2 33.4 0 41.5 0s15.3 2 21.6 5.9c6.3 3.9 11.2 9.5 14.6 16.8 3.5 7.3 5.2 15.7 5.2 25.3v4.2zm-20.3-4.4c0-10.2-1.8-18-5.5-23.3-3.7-5.3-8.9-8-15.7-8-6.7 0-11.9 2.6-15.6 7.9-3.7 5.2-5.5 12.9-5.6 23v4.7c0 9.9 1.8 17.7 5.5 23.1 3.7 5.5 8.9 8.2 15.8 8.2 6.7 0 11.9-2.6 15.5-7.9 3.6-5.3 5.4-13 5.5-23.1v-4.6z" fill="#fff"/></svg>