<svg xmlns="http://www.w3.org/2000/svg" width="22" height="22"><defs><clipPath id="a"><path clip-rule="evenodd" d="M-1315-422H125v2987h-1440z"/></clipPath></defs><g clip-path="url(#a)"><path fill="#B1B1B1" d="M0 11C0 4.925 4.925 0 11 0s11 4.925 11 11-4.925 11-11 11S0 17.075 0 11zm10.984-2.924c.894 0 1.497.387 1.84.71l1.344-1.313a4.57 4.57 0 0 0-3.184-1.24A4.756 4.756 0 0 0 6.732 8.86 4.776 4.776 0 0 0 6.224 11c0 .768.185 1.494.508 2.14l1.544-1.197-1.539 1.197a4.748 4.748 0 0 0 4.247 2.627c1.285 0 2.364-.424 3.152-1.155.9-.831 1.418-2.055 1.418-3.506a4.08 4.08 0 0 0-.101-.975h-4.469v1.77h2.623c-.053.439-.338 1.101-.973 1.546-.402.28-.941.477-1.65.477-1.259 0-2.327-.832-2.708-1.981A2.938 2.938 0 0 1 8.118 11a3.1 3.1 0 0 1 .153-.943c.386-1.149 1.454-1.98 2.713-1.98z" fill-rule="evenodd"/></g></svg>