<svg xmlns="http://www.w3.org/2000/svg" width="16" height="17"><defs><clipPath id="a"><path clip-rule="evenodd" d="M-1017-12H423v2987h-1440z"/></clipPath></defs><g clip-path="url(#a)"><path fill="#868E96" d="M15.539 2.206a.462.462 0 0 1 .45.563l-1.385 6.154a.462.462 0 0 1-.45.36H4.888l.355 1.538h8.88a.462.462 0 0 1 0 .923H4.876a.461.461 0 0 1-.45-.357L2.094 1.283H.462a.462.462 0 0 1 0-.923h2c.214 0 .4.148.45.358l.343 1.488h12.284zM4.675 8.36h9.11l1.176-5.231H3.468l1.207 5.23z" fill-rule="evenodd"/></g><defs><clipPath id="b"><path clip-rule="evenodd" d="M-1017-12H423v2987h-1440z"/></clipPath></defs><g clip-path="url(#b)"><path fill="#868E96" d="M5.077 14.052c0-.933.76-1.692 1.692-1.692.934 0 1.693.759 1.693 1.692 0 .933-.76 1.692-1.693 1.692s-1.692-.759-1.692-1.692zm.923 0a.77.77 0 1 0 1.54-.002.77.77 0 0 0-1.54.002z" fill-rule="evenodd"/></g><defs><clipPath id="c"><path clip-rule="evenodd" d="M-1017-12H423v2987h-1440z"/></clipPath></defs><g clip-path="url(#c)"><path fill="#868E96" d="M10.615 14.052c0-.933.76-1.692 1.693-1.692S14 13.119 14 14.052c0 .933-.76 1.692-1.692 1.692a1.694 1.694 0 0 1-1.693-1.692zm.923 0a.77.77 0 1 0 1.54-.002.77.77 0 0 0-1.54.002z" fill-rule="evenodd"/></g></svg>