<svg xmlns="http://www.w3.org/2000/svg" width="83" height="23"><defs><clipPath id="a"><path clip-rule="evenodd" d="M-177-65h1440v2987H-177z"/></clipPath></defs><g clip-path="url(#a)"><path fill="#FFF" d="M10.921 20.794h3.756V7.704h-3.756v1.694h-.116C10.055 8.36 8.753 7.35 6.587 7.35 3.062 7.35 0 10.027 0 14.236c0 4.946 3.61 6.995 6.297 6.995 2.254 0 3.613-.957 4.508-2.076h.116v1.639zm.058-6.504c0 2.213-1.619 3.744-3.468 3.744-2.426 0-3.554-1.86-3.554-3.772 0-1.885 1.156-3.771 3.583-3.771 1.936 0 3.439 1.503 3.439 3.799z" fill-rule="evenodd"/></g><defs><clipPath id="b"><path clip-rule="evenodd" d="M-177-65h1440v2987H-177z"/></clipPath></defs><g clip-path="url(#b)"><path fill="#FFF" d="M23.44 1.633h-5.31v18.781h6.264c3.822 0 6.687-1.928 6.687-5.397 0-2.23-1.518-4.269-4.439-4.654v-.055c1.882-.44 3.426-1.845 3.426-3.938 0-3.167-2.668-4.737-6.628-4.737zm-.197 2.947h-1.321v4.544h1.46c1.882 0 2.726-.91 2.726-2.369 0-1.404-1.067-2.175-2.865-2.175zm.59 7.436h-1.911v5.424h2.08c1.965 0 3.034-1.019 3.034-2.754 0-1.57-1.153-2.67-3.203-2.67z" fill-rule="evenodd"/></g><defs><clipPath id="c"><path clip-rule="evenodd" d="M-177-65h1440v2987H-177z"/></clipPath></defs><g clip-path="url(#c)"><path fill="#FFF" d="M41.01 17.978c2.092 0 3.41-1.6 3.41-3.688 0-2.006-1.233-3.687-3.41-3.687-2.151 0-3.44 1.573-3.44 3.687 0 2.142 1.49 3.688 3.44 3.688m0-10.629c4.328 0 7.338 2.983 7.338 6.915 0 3.823-3.04 6.967-7.339 6.967-4.214 0-7.338-3.036-7.338-6.967 0-4.014 3.154-6.915 7.338-6.915"/></g><defs><clipPath id="d"><path clip-rule="evenodd" d="M-177-65h1440v2987H-177z"/></clipPath></defs><g clip-path="url(#d)"><path fill="#FFF" d="M57.413 17.978c2.093 0 3.41-1.6 3.41-3.688 0-2.006-1.232-3.687-3.41-3.687-2.15 0-3.44 1.573-3.44 3.687 0 2.142 1.49 3.688 3.44 3.688m0-10.629c4.329 0 7.339 2.983 7.339 6.915 0 3.823-3.04 6.967-7.339 6.967-4.214 0-7.338-3.036-7.338-6.967 0-4.014 3.154-6.915 7.338-6.915"/></g><defs><clipPath id="e"><path clip-rule="evenodd" d="M67.056 1.054h13.851v19.711H67.056z"/></clipPath></defs><g clip-path="url(#e)"><path fill="#FFF" d="M71.846 15.372l-.894.822v4.571h-3.896V1.055h3.896v11.032l4.386-4.436h4.733l-5.541 5.394 6.377 7.72h-4.704l-4.357-5.393z"/></g></svg>