<svg xmlns="http://www.w3.org/2000/svg" width="61" height="40"><defs><clipPath id="a"><path clip-rule="evenodd" d="M-101-48h1440v2987H-101z"/></clipPath></defs><g clip-path="url(#a)"><path fill="#FF9800" d="M27.904 27.397c.88.825 1.648 1.746 2.272 2.757a13.37 13.37 0 0 1 2.27-2.753V0h-4.542v27.397z"/></g><defs><clipPath id="b"><path clip-rule="evenodd" d="M-101-48h1440v2987H-101z"/></clipPath></defs><g clip-path="url(#b)"><path fill="#FF9800" d="M15.575 22.444a22.22 22.22 0 0 1 3.244.325V11.692h-3.244v10.752z"/></g><defs><clipPath id="c"><path clip-rule="evenodd" d="M-101-48h1440v2987H-101z"/></clipPath></defs><g clip-path="url(#c)"><path fill="#FF9800" d="M21.415 23.53a19.419 19.419 0 0 1 3.894 1.7V6.77h-3.894v16.76z"/></g><defs><clipPath id="d"><path clip-rule="evenodd" d="M-101-48h1440v2987H-101z"/></clipPath></defs><g clip-path="url(#d)"><path fill="#FF9800" d="M35.042 25.23a19.412 19.412 0 0 1 3.894-1.704V6.769h-3.894v18.462z"/></g><defs><clipPath id="e"><path clip-rule="evenodd" d="M-101-48h1440v2987H-101z"/></clipPath></defs><g clip-path="url(#e)"><path fill="#FF9800" d="M41.532 11.692V22.77a22.13 22.13 0 0 1 3.245-.325V11.691h-3.245z"/></g><defs><clipPath id="f"><path clip-rule="evenodd" d="M-101-48h1440v2987H-101z"/></clipPath></defs><g clip-path="url(#f)"><path fill="#FFF" d="M57.106 28.925H44.704a11.398 11.398 0 0 0-4.516.835c-3.858 1.57-6.37 5.1-6.443 9.01h3.12a6.692 6.692 0 0 1 .526-2.423c1.218-2.893 4.194-4.574 7.267-4.507h12.447v-2.915z"/></g><defs><clipPath id="g"><path clip-rule="evenodd" d="M-101-48h1440v2987H-101z"/></clipPath></defs><g clip-path="url(#g)"><path fill="#FFF" d="M52.564 33.236h-8.216c-3.12-.123-5.954 2.274-6.06 5.533h3.123c.106-1.508 1.47-2.591 2.937-2.467v-.004h8.216v-3.062z"/></g><defs><clipPath id="h"><path clip-rule="evenodd" d="M-101-48h1440v2987H-101z"/></clipPath></defs><g clip-path="url(#h)"><path fill="#FFF" d="M44.306 24v.002c-5.999-.063-11.741 3.145-14.431 8.575-2.74-5.53-8.534-8.648-14.48-8.574V24H0v2.986h15.396v-.001c5.054-.082 9.953 2.732 11.965 7.59.571 1.378.854 2.796.875 4.194h3.276c.022-1.398.305-2.816.876-4.194 2.003-4.842 6.88-7.654 11.918-7.59h15.396V24H44.306z"/></g><defs><clipPath id="i"><path clip-rule="evenodd" d="M-101-48h1440v2987H-101z"/></clipPath></defs><g clip-path="url(#i)"><path fill="#FFF" d="M20.175 29.76a11.363 11.363 0 0 0-4.506-.835v.001H3.245v2.915h12.424v-.005c3.997-.104 7.717 2.819 7.823 6.933h3.114c-.072-3.909-2.58-7.438-6.43-9.009"/></g><defs><clipPath id="j"><path clip-rule="evenodd" d="M-101-48h1440v2987H-101z"/></clipPath></defs><g clip-path="url(#j)"><path fill="#FFF" d="M15.373 33.235v.001H7.138v3.062h8.235v.004c1.462-.124 2.822.959 2.929 2.467h3.113c-.105-3.26-2.932-5.657-6.042-5.534"/></g></svg>