<svg xmlns="http://www.w3.org/2000/svg" width="11" height="7"><path fill="#A7B4BA" d="M9.321 4.197q.056.07.098.15.042.078.068.162.026.084.035.171.01.087.002.174-.007.087-.031.171-.024.084-.064.163-.04.078-.095.148-.054.07-.122.13 0 .002-.002.003-.136.12-.298.176-.161.056-.327.041-.167-.014-.317-.098t-.263-.227l-2.77-3.478q-.056-.07-.098-.15-.041-.078-.067-.162-.026-.084-.036-.171-.01-.087-.002-.174t.032-.171q.024-.084.064-.163.04-.078.094-.148.055-.07.122-.13l.001-.002h.002q.136-.12.297-.177.162-.056.328-.041.167.014.316.098.15.084.264.227l2.77 3.478zm-3.436 0q.056.07.098.15.041.078.067.162.026.084.036.171.01.087.002.174t-.032.171q-.024.084-.064.163-.04.078-.094.148-.055.07-.122.13l-.001.002h-.001q-.137.12-.298.177-.162.056-.328.041-.167-.014-.316-.098-.15-.084-.264-.227l-2.77-3.478q-.055-.07-.097-.15-.042-.078-.068-.162-.026-.084-.035-.171-.01-.087-.002-.174.007-.087.031-.171.024-.084.064-.163.04-.078.095-.148.054-.07.122-.13V.611h.002q.136-.12.298-.177.161-.056.327-.041.167.014.317.098t.263.227l2.77 3.478z" fill-rule="evenodd"/></svg>