<?xml version="1.0" encoding="utf-8" ?>
<svg xmlns="http://www.w3.org/2000/svg" xmlns:xlink="http://www.w3.org/1999/xlink" width="51" height="17">
	<defs>
		<clipPath id="clip_0">
			<rect x="-1107" y="-397" width="1440" height="2987" clip-rule="evenodd"/>
		</clipPath>
	</defs>
	<g clip-path="url(#clip_0)">
		<path fill="rgb(0,92,156)" stroke="none" transform="translate(17.9355 0.551636)" d="M4.13653 15.8886L0 15.8886L2.58528 0L6.72223 0L4.13653 15.8886"/>
	</g>
	<defs>
		<clipPath id="clip_1">
			<rect x="-1107" y="-397" width="1440" height="2987" clip-rule="evenodd"/>
		</clipPath>
	</defs>
	<g clip-path="url(#clip_1)">
		<path fill="rgb(0,92,156)" stroke="none" transform="translate(0.0966797 0.551636)" d="M14.3595 0L10.4155 10.928L9.94925 8.5748L9.94967 8.57565L8.55737 1.43097C8.55737 1.43097 8.3895 0 6.59515 0L0.076075 0L0 0.269025C0 0.269025 1.9941 0.6834 4.3265 2.08547L7.9203 15.8886L12.2302 15.8886L18.8113 0L14.3595 0"/>
	</g>
	<defs>
		<clipPath id="clip_2">
			<rect x="-1107" y="-397" width="1440" height="2987" clip-rule="evenodd"/>
		</clipPath>
	</defs>
	<g clip-path="url(#clip_2)">
		<path fill="rgb(0,92,156)" stroke="none" transform="translate(36.0742 0.551636)" d="M14.7156 15.8886L10.9174 15.8886L10.4325 13.5286L5.17395 13.5286L4.3112 15.8886L0 15.8886L6.16888 1.18405C6.16888 1.18405 6.54245 0 8.0784 0L11.404 0L14.7156 15.8886ZM8.53953 4.32225L6.36565 10.268L9.76225 10.268L8.53953 4.32225Z" fill-rule="evenodd"/>
	</g>
	<defs>
		<clipPath id="clip_3">
			<rect x="-1107" y="-397" width="1440" height="2987" clip-rule="evenodd"/>
		</clipPath>
	</defs>
	<g clip-path="url(#clip_3)">
		<path fill="rgb(0,92,156)" stroke="none" transform="translate(24.6211 0.267334)" d="M11.7767 4.10507L12.3666 0.69275C12.3666 0.69275 10.5451 0 8.6462 0C6.59345 0 1.71912 0.8976 1.71912 5.2598C1.71912 9.36487 7.44047 9.41587 7.44047 11.5715C7.44047 13.7266 2.3086 13.3412 0.6154 11.9816L0 15.5486C0 15.5486 1.84662 16.4462 4.66947 16.4462C7.4919 16.4462 11.7508 14.9842 11.7508 11.0066C11.7508 6.87607 5.97805 6.49102 5.97805 4.6954C5.97805 2.89892 10.0066 3.1297 11.7767 4.10507"/>
	</g>
	<defs>
		<clipPath id="clip_4">
			<rect x="-1107" y="-397" width="1440" height="2987" clip-rule="evenodd"/>
		</clipPath>
	</defs>
	<g clip-path="url(#clip_4)">
		<path fill="rgb(238,159,63)" stroke="none" transform="translate(0.0966797 0.551636)" d="M9.94967 8.57565L8.55737 1.43098C8.55737 1.43098 8.3895 0 6.59515 0L0.076075 0L0 0.269025C0 0.269025 3.13352 0.918425 6.13955 3.35155C9.01255 5.67673 9.94967 8.57565 9.94967 8.57565"/>
	</g>

</svg>